# xmcd
#
# Track frame offsets:
#	150
#	20950
#	34722
#	50627
#	67557
#	85207
#	103082
#	116742
#	135610
#	155902
#	169862
#	185750
#	202990
#	221097
#	238842
#	262235
#
# Disc length: 3790 seconds
#
# Revision: 3
# Processed by: cddbd v1.5.1PL0 Copyright (c) Steve Scherf et al.
# Submitted via: audiograbber 1.83.01
#
DISCID=f40ecc10
DTITLE=Various Artist - The Songs Of Hank Williams Jr: A Bocephus Celebration
DYEAR=2003
DGENRE=Country
TTITLE0=Blake Shelton - Young Country
TTITLE1=Montgomery Gentry - Women I've Never Had
TTITLE2=Trick Pony - All My Rowdy Friends Are Coming Over Tonight
TTITLE3=Tracy Lawrence - Outlaw Women
TTITLE4=Lynyrd Skynyrd - Born To Boogie
TTITLE5=Chad Brock - A Country Boy Can Survive
TTITLE6=Dusty Drake - Heaven Can't Be Found
TTITLE7=Aaron Tippin - Family Tradition
TTITLE8=Alan Jackson - The Blues Man
TTITLE9=John Michael Montgomery - Major Moves
TTITLE10=Trace Adkins - Eleven Roses
TTITLE11=Dan Baird - Whiskey Bent And Hell Bound
TTITLE12=Andy Griggs - Old Habits
TTITLE13=Marshall Tucker Band - All My Rowdy Friends Have Settled Down
TTITLE14=38 Special - If It Will It Will
TTITLE15=Hank Williams Jr and Friends - Outlaw's Reward
EXTD=
EXTT0=
EXTT1=
EXTT2=
EXTT3=
EXTT4=
EXTT5=
EXTT6=
EXTT7=
EXTT8=
EXTT9=
EXTT10=
EXTT11=
EXTT12=
EXTT13=
EXTT14=
EXTT15=
PLAYORDER=
